<svg width="427" height="428" viewBox="0 0 427 428" fill="none" xmlns="http://www.w3.org/2000/svg">
<path d="M177.824 224.672C171.488 224.672 165.664 223.2 160.352 220.256C155.04 217.248 150.816 213.12 147.68 207.872C144.608 202.56 143.072 196.576 143.072 189.92C143.072 183.264 144.608 177.312 147.68 172.064C150.816 166.752 155.04 162.624 160.352 159.68C165.664 156.736 171.488 155.264 177.824 155.264C184.224 155.264 190.048 156.736 195.296 159.68C200.608 162.624 204.8 166.752 207.872 172.064C210.944 177.312 212.48 183.264 212.48 189.92C212.48 196.576 210.944 202.56 207.872 207.872C204.8 213.12 200.608 217.248 195.296 220.256C189.984 223.2 184.16 224.672 177.824 224.672ZM177.824 207.2C182.624 207.2 186.4 205.632 189.152 202.496C191.968 199.36 193.376 195.168 193.376 189.92C193.376 184.544 191.968 180.32 189.152 177.248C186.4 174.112 182.624 172.544 177.824 172.544C172.96 172.544 169.152 174.112 166.4 177.248C163.648 180.32 162.272 184.544 162.272 189.92C162.272 195.232 163.648 199.456 166.4 202.592C169.152 205.664 172.96 207.2 177.824 207.2ZM260.971 224L239.755 194.336V224H220.939V156.32H239.755V185.504L260.779 156.32H282.475L257.611 189.152L283.723 224H260.971Z" fill="#A7C957"/>
<path d="M64 287.656V302.12H26.752V325.032H55.296V339.24H26.752V377H8.832V287.656H64ZM122.787 377L103.075 342.184H94.627V377H76.707V287.656H110.243C117.155 287.656 123.043 288.893 127.907 291.368C132.771 293.757 136.398 297.043 138.787 301.224C141.262 305.32 142.499 309.928 142.499 315.048C142.499 320.936 140.792 326.269 137.379 331.048C133.966 335.741 128.888 338.984 122.147 340.776L143.523 377H122.787ZM94.627 328.744H109.603C114.467 328.744 118.094 327.592 120.483 325.288C122.872 322.899 124.067 319.613 124.067 315.432C124.067 311.336 122.872 308.179 120.483 305.96C118.094 303.656 114.467 302.504 109.603 302.504H94.627V328.744ZM176.371 287.656V342.952C176.371 349.011 177.95 353.661 181.107 356.904C184.264 360.061 188.702 361.64 194.419 361.64C200.222 361.64 204.702 360.061 207.859 356.904C211.016 353.661 212.595 349.011 212.595 342.952V287.656H230.643V342.824C230.643 350.419 228.979 356.861 225.651 362.152C222.408 367.357 218.014 371.283 212.467 373.928C207.006 376.573 200.904 377.896 194.163 377.896C187.507 377.896 181.448 376.573 175.987 373.928C170.611 371.283 166.344 367.357 163.187 362.152C160.03 356.861 158.451 350.419 158.451 342.824V287.656H176.371ZM265.877 287.656V377H247.957V287.656H265.877ZM344.382 287.656V302.12H320.574V377H302.654V302.12H278.846V287.656H344.382ZM388.305 377.896C382.076 377.896 376.444 376.829 371.409 374.696C366.46 372.563 362.534 369.491 359.633 365.48C356.732 361.469 355.238 356.733 355.153 351.272H374.353C374.609 354.941 375.889 357.843 378.193 359.976C380.582 362.109 383.825 363.176 387.921 363.176C392.102 363.176 395.388 362.195 397.777 360.232C400.166 358.184 401.361 355.539 401.361 352.296C401.361 349.651 400.55 347.475 398.929 345.768C397.308 344.061 395.26 342.739 392.785 341.8C390.396 340.776 387.068 339.667 382.801 338.472C376.998 336.765 372.262 335.101 368.593 333.48C365.009 331.773 361.894 329.256 359.249 325.928C356.689 322.515 355.409 317.992 355.409 312.36C355.409 307.069 356.732 302.461 359.377 298.536C362.022 294.611 365.734 291.624 370.513 289.576C375.292 287.443 380.753 286.376 386.897 286.376C396.113 286.376 403.58 288.637 409.297 293.16C415.1 297.597 418.3 303.827 418.897 311.848H399.185C399.014 308.776 397.692 306.259 395.217 304.296C392.828 302.248 389.628 301.224 385.617 301.224C382.118 301.224 379.302 302.12 377.169 303.912C375.121 305.704 374.097 308.307 374.097 311.72C374.097 314.109 374.865 316.115 376.401 317.736C378.022 319.272 379.985 320.552 382.289 321.576C384.678 322.515 388.006 323.624 392.273 324.904C398.076 326.611 402.812 328.317 406.481 330.024C410.15 331.731 413.308 334.291 415.953 337.704C418.598 341.117 419.921 345.597 419.921 351.144C419.921 355.923 418.684 360.36 416.209 364.456C413.734 368.552 410.108 371.837 405.329 374.312C400.55 376.701 394.876 377.896 388.305 377.896Z" fill="#A7C957"/>
<path d="M328.086 114.368C321.749 98.1443 311.653 85.5769 298.865 77.9269C295.916 83.5904 292.397 88.9393 288.363 93.891L288.432 93.9285C307.475 104.861 318.55 132.798 315.365 161.867C310.089 210.028 295.445 243.035 274.129 254.807C260.271 262.46 242.989 261.37 222.759 251.571L220.783 250.617H206.215L204.24 251.571C184.011 261.371 166.729 262.46 152.871 254.807C131.555 243.035 116.912 210.028 111.634 161.867C108.449 132.798 119.525 104.86 138.568 93.9285C144.702 90.4284 151.658 88.6228 158.721 88.6973C173.143 88.6973 189.762 95.4458 207.821 108.777L208.465 109.255C208.465 109.255 234.498 106.093 244.811 101.416C275.884 87.3256 282.741 64.9288 283.957 61.8872C287.541 53.0013 289.332 43.4957 289.227 33.9164C289.123 24.3371 287.124 14.8728 283.347 6.06712L280.914 0L274.374 0.0656296C264.032 0.178841 253.831 2.47585 244.44 6.80584C235.05 11.1358 226.682 17.4009 219.887 25.1896C213.093 32.9783 208.024 42.1145 205.014 51.9984C202.005 61.8823 201.122 72.2902 202.425 82.5389C191.136 76.2206 180.158 72.1915 169.642 70.5228C154.743 68.1571 141.083 70.4631 129.043 77.3757C115.82 84.9672 105.401 97.7589 98.9131 114.367C93.0152 129.466 90.7848 147.072 92.6329 163.943C98.6909 219.239 116.322 256.437 143.621 271.515C152.59 276.486 162.691 279.064 172.949 278.999C184.647 278.999 197.217 275.9 210.565 269.706H216.437C241.759 281.456 264.273 282.067 283.379 271.515C310.676 256.438 328.31 219.24 334.368 163.943C336.215 147.073 333.984 129.467 328.086 114.368ZM253.782 23.5478C258.299 21.6054 263.061 20.2878 267.935 19.6315C270.1 27.1103 270.626 34.9674 269.477 42.6675C268.328 50.3677 265.531 57.73 261.276 64.253C257.021 70.776 251.409 76.3064 244.822 80.4676C238.234 84.6287 230.826 87.3227 223.102 88.3662C219.436 75.6834 220.53 62.1 226.178 50.1656C231.827 38.2312 241.643 28.7664 253.782 23.5478Z" fill="#BC4749"/>
</svg>
